<svg width="24" height="27" viewBox="0 0 24 27" fill="none" xmlns="http://www.w3.org/2000/svg">
<path d="M12 0C8.37143 0 5.40329 2.9714 5.40329 6.74996C5.40329 9.15101 6.3433 11.5666 7.64282 14.1135H5.10367L5.10346 14.1138C5.08483 14.1127 5.066 14.1127 5.04738 14.1138C4.82137 14.1334 4.6255 14.2818 4.54138 14.4973L0.0437375 26.1563V26.1561C-0.0313848 26.3463 -0.00878712 26.5625 0.104214 26.732C0.217214 26.9015 0.405549 27.0021 0.606022 27H23.394C23.5947 27.0021 23.7828 26.9015 23.8958 26.732C24.0088 26.5625 24.0314 26.3464 23.9563 26.1561L19.4586 14.4971V14.4973C19.3661 14.2631 19.1431 14.111 18.8966 14.1138H16.3574C17.6569 11.5667 18.5969 9.15112 18.5969 6.75017C18.5969 2.97167 15.629 0.000214018 12.0002 0.000214018L12 0ZM12 1.22716C14.9954 1.22716 17.3973 3.62246 17.3973 6.74985C17.3973 10.3419 14.6566 14.5923 12 19.5786C9.34364 14.5924 6.60274 10.3418 6.60274 6.74985C6.60274 3.6224 9.00443 1.22716 12 1.22716ZM12 2.76124C10.3513 2.76124 9.00148 4.14207 9.00148 5.8294C9.00148 7.51672 10.351 8.89756 12 8.89756C13.6487 8.89756 14.9985 7.51672 14.9985 5.8294C14.9985 4.14207 13.649 2.76124 12 2.76124ZM12 3.98839C13.0007 3.98839 13.799 4.80529 13.799 5.8294C13.799 6.85329 13.0007 7.6704 12 7.6704C10.9993 7.6704 10.201 6.85351 10.201 5.8294C10.201 4.80551 10.9993 3.98839 12 3.98839ZM8.28015 15.3214C9.27683 17.1701 10.4075 19.0917 11.466 21.1416C11.5685 21.3469 11.7746 21.4761 12 21.4761C12.2254 21.4761 12.4317 21.3469 12.534 21.1416C13.5933 19.0907 14.7319 17.1718 15.7293 15.3214C15.7843 15.336 15.8412 15.3424 15.8979 15.3405H18.4839L20.2643 19.9427H17.9968C17.9781 19.9419 17.9593 19.9419 17.9405 19.9427C17.7814 19.9504 17.6318 20.0223 17.5247 20.1428C17.4175 20.2633 17.3615 20.4223 17.3688 20.5852C17.3763 20.7478 17.4466 20.9011 17.5644 21.0107C17.6822 21.1204 17.8377 21.1778 17.9968 21.1701H20.7328L22.5132 25.7723H12.5999V23.6247C12.6037 23.4479 12.5328 23.278 12.4053 23.1588C12.2779 23.0393 12.1063 22.982 11.9347 23.0012C11.6256 23.0361 11.3937 23.3067 11.4004 23.6247V25.7723H1.48717L3.26754 21.1701H6.00361C6.16412 21.1725 6.31876 21.1087 6.43323 20.9933C6.54748 20.8782 6.61193 20.7207 6.61193 20.5565C6.61193 20.3921 6.54748 20.2346 6.43323 20.1195C6.31876 20.0041 6.16412 19.9403 6.00361 19.9427H3.73607L5.51644 15.3405H8.10247C8.16232 15.3432 8.22237 15.3368 8.28055 15.3214L8.28015 15.3214Z" fill="black"/>
</svg>
